<?xml version="1.0" encoding="UTF-8"?>
<svg id="_レイヤー_2" data-name="レイヤー 2" xmlns="http://www.w3.org/2000/svg" xmlns:xlink="http://www.w3.org/1999/xlink" viewBox="0 0 239.85 238.48">
  <defs>
    <clipPath id="clippath">
      <rect x="51.57" y="-7.76" width="146.99" height="229.57" transform="translate(232.09 -18.05) rotate(90)" style="fill: none;"/>
    </clipPath>
  </defs>
  <g id="_イラスト" data-name="イラスト">
    <g>
      <g style="clip-path: url(#clippath);">
        <g>
          <path d="M230.76,179.44c-15.76-8.54-29.67-17.91-41.09-28.45-2.81-2.63-5.42-5.35-7.92-8.13l-.47-.52-.45-.53-.89-1.06-1.78-2.13-1.67-2.18c-.56-.73-1.13-1.45-1.63-2.2l-1.56-2.24-.39-.56-.37-.57-.73-1.14-.73-1.15c-.24-.38-.5-.76-.71-1.16l-1.34-2.34c-.22-.39-.46-.78-.66-1.18l-.62-1.2c-.41-.8-.84-1.6-1.23-2.41-.74-1.63-1.54-3.27-2.19-4.95l-.51-1.26-.26-.63-.23-.64-.92-2.57c-.16-.43-.28-.87-.42-1.3l-.41-1.31-.4-1.32-.35-1.34-.36-1.34-.18-.67-.15-.68-.61-2.75-.5-2.8-.12-.7-.1-.71-.2-1.43c-1.04-7.64-1.21-15.8-.18-24.57.48-4.38,1.24-8.91,2.32-13.6.12-.59.28-1.17.42-1.76.15-.59.28-1.18.44-1.78.32-1.19.62-2.39.99-3.6.67-2.42,1.47-4.87,2.33-7.37l.66-1.88.7-1.89c.23-.63.49-1.26.73-1.9l.37-.96.39-.96c1.04-2.56,2.17-5.16,3.43-7.78,1.24-2.62,2.59-5.28,4.08-7.95.74-1.34,1.52-2.68,2.34-4.02.82-1.35,1.67-2.7,2.62-4.04-1.01,1.31-1.93,2.64-2.82,3.96-.89,1.32-1.74,2.65-2.56,3.97-1.64,2.65-3.17,5.29-4.58,7.92-1.43,2.63-2.75,5.24-3.98,7.83l-.46.97-.45.97c-.29.65-.6,1.29-.88,1.93l-.85,1.92-.81,1.91c-1.07,2.54-2.08,5.06-2.97,7.54-.48,1.24-.88,2.48-1.32,3.71-.21.61-.4,1.23-.61,1.84-.2.61-.41,1.22-.59,1.83-1.54,4.85-2.79,9.59-3.75,14.2-2.04,9.22-2.92,17.92-2.94,26.16v1.54s0,.77,0,.77l.02.76.09,3.03.19,2.98.05.74.07.73.15,1.46.14,1.46.19,1.44c.14.96.25,1.92.4,2.86l.49,2.82.12.7.15.69.3,1.38c.36,1.85.87,3.65,1.32,5.46.24.9.53,1.78.79,2.67l.4,1.33c.13.44.3.87.44,1.31l.9,2.6c.14.44.33.86.49,1.29l.5,1.28.5,1.27.25.64.28.63,1.11,2.5c.36.84.78,1.65,1.18,2.47l1.22,2.44,1.32,2.4.66,1.2.33.6.36.59c1.89,3.14,3.89,6.22,6.09,9.21,8.9,11.99,20.28,22.83,33.49,32.84l26.07-13.13Z" style="fill: #75c293; stroke: #75c293; stroke-miterlimit: 10; stroke-width: 1.2px;"/>
          <g>
            <path d="M30.12,231.34c4.47-18.14,10.63-36.68,19.2-55.68,2.07-4.76,4.33-9.57,6.68-14.39l.43-.9.46-.91.92-1.82,1.83-3.64,1.92-3.67c.64-1.22,1.26-2.44,1.95-3.67l2.01-3.69.5-.92.52-.93,1.05-1.86,1.04-1.85c.35-.62.68-1.23,1.06-1.86l2.18-3.73c.37-.62.71-1.24,1.1-1.87l1.14-1.88c.76-1.25,1.49-2.5,2.27-3.75,1.58-2.52,3.09-5.02,4.75-7.55l1.21-1.89.6-.95.63-.95,2.51-3.8c.84-1.27,1.73-2.55,2.59-3.81l1.29-1.91,1.34-1.92,1.33-1.91.66-.96.69-.96,2.75-3.84,2.83-3.85.7-.96.73-.96,1.45-1.93c7.65-10.3,16.06-20.63,25.37-30.75,4.55-5.09,9.31-10.12,14.27-15.05.6-.62,1.24-1.23,1.86-1.85.63-.61,1.24-1.23,1.87-1.84,1.27-1.22,2.51-2.44,3.81-3.64,2.53-2.42,5.16-4.8,7.8-7.14l1.99-1.75,2.01-1.73c.66-.58,1.36-1.14,2.03-1.71l1.01-.85,1.03-.84c2.73-2.25,5.5-4.45,8.33-6.57,2.82-2.13,5.69-4.19,8.61-6.15,1.46-.98,2.93-1.94,4.42-2.86,1.49-.92,2.99-1.82,4.52-2.64-1.58.76-3.15,1.62-4.7,2.5-1.56.88-3.1,1.8-4.63,2.75-3.07,1.9-6.1,3.9-9.09,5.99-3,2.08-5.96,4.25-8.87,6.48l-1.1.84-1.09.85c-.72.57-1.46,1.13-2.17,1.7l-2.16,1.72-2.14,1.75c-2.85,2.34-5.68,4.72-8.43,7.16-1.41,1.21-2.75,2.44-4.14,3.67-.69.62-1.36,1.24-2.04,1.86-.68.62-1.37,1.24-2.03,1.87-5.42,4.99-10.67,10.11-15.72,15.3-10.33,10.33-19.84,20.95-28.62,31.59l-1.67,1.99-.84,1-.81.99-3.27,3.98-3.19,3.97-.8.99-.78.99-1.56,1.98-1.57,1.98-1.52,1.97-1.53,1.98c-.51.66-1.04,1.32-1.52,1.98l-2.98,3.94-.75.99-.72.98-1.45,1.96c-1.98,2.63-3.81,5.22-5.72,7.84-.94,1.3-1.83,2.59-2.76,3.89l-1.38,1.95c-.47.65-.89,1.29-1.34,1.94l-2.68,3.88c-.46.65-.87,1.29-1.31,1.93l-1.3,1.93-1.3,1.93-.65.96-.63.96-2.52,3.83c-.86,1.28-1.65,2.55-2.47,3.82l-2.44,3.81-2.35,3.79-1.18,1.9-.59.95-.57.94c-3.07,5.02-6.05,10.02-8.84,14.98-11.57,19.76-20.82,39.05-28.46,57.93l29.1-6.28Z" style="fill: #92d2e1; stroke: #92d2e1; stroke-miterlimit: 10; stroke-width: 1.25px;"/>
            <path d="M59.55,224.91c1.3-17.37,4.38-35.13,9.95-53.36,1.34-4.56,2.87-9.17,4.51-13.79l.3-.87.33-.87.65-1.75,1.3-3.49,1.4-3.51c.47-1.17.91-2.34,1.43-3.52l1.49-3.54.37-.88.4-.89.79-1.78.79-1.78c.27-.59.51-1.18.8-1.78l1.68-3.58c.28-.6.54-1.19.84-1.79l.89-1.8c.59-1.2,1.16-2.4,1.77-3.6,1.25-2.42,2.44-4.82,3.78-7.26l.97-1.82.48-.91.51-.91,2.03-3.66c.68-1.22,1.41-2.45,2.11-3.67l1.06-1.84,1.11-1.85,1.1-1.84.55-.92.58-.93,2.29-3.7,2.38-3.72.59-.93.62-.93,1.23-1.86c6.49-9.96,13.78-19.99,22.04-29.9,4.03-4.98,8.3-9.92,12.79-14.79.54-.61,1.13-1.22,1.69-1.83.57-.61,1.12-1.22,1.7-1.82,1.16-1.21,2.28-2.42,3.47-3.62,2.31-2.4,4.72-4.78,7.15-7.12l1.83-1.75,1.86-1.74c.61-.58,1.26-1.15,1.88-1.73l.94-.86.96-.85c2.53-2.27,5.13-4.5,7.79-6.67,2.64-2.17,5.36-4.29,8.13-6.33,1.39-1.02,2.79-2.01,4.21-2.98,1.42-.96,2.86-1.91,4.34-2.78-1.53.82-3.03,1.72-4.52,2.64-1.49.92-2.96,1.88-4.42,2.86-2.92,1.97-5.79,4.03-8.6,6.16-2.83,2.13-5.6,4.32-8.33,6.58l-1.03.84-1.01.85c-.67.57-1.36,1.14-2.02,1.71l-2.01,1.73-1.98,1.75c-2.64,2.34-5.26,4.72-7.79,7.14-1.3,1.2-2.53,2.42-3.8,3.64-.63.61-1.24,1.22-1.87,1.84-.62.61-1.26,1.23-1.86,1.85-4.95,4.93-9.71,9.96-14.25,15.04-9.29,10.12-17.68,20.44-25.31,30.73l-1.45,1.92-.73.96-.7.96-2.82,3.84-2.74,3.83-.69.96-.66.95-1.33,1.91-1.34,1.91-1.29,1.91c-.85,1.27-1.74,2.55-2.58,3.81l-2.5,3.8-.63.95-.6.94-1.21,1.89c-1.66,2.53-3.16,5.03-4.74,7.54-.77,1.25-1.5,2.5-2.26,3.75l-1.13,1.87c-.38.63-.73,1.24-1.09,1.86l-2.17,3.73c-.37.62-.7,1.24-1.05,1.86l-1.04,1.85-1.05,1.85-.52.93-.5.92-2,3.68c-.69,1.23-1.3,2.45-1.94,3.67l-1.92,3.66-1.82,3.64-.91,1.82-.46.91-.43.9c-2.34,4.82-4.59,9.63-6.65,14.39-8.52,18.99-14.64,37.52-19.05,55.65l28.96-6.33Z" style="fill: #5cb2e5; stroke: #5cb2e5; stroke-miterlimit: 10; stroke-width: 1.25px;"/>
            <path d="M88.84,218.44c-1.8-16.59-1.75-33.55.84-51,.62-4.36,1.44-8.76,2.36-13.19l.17-.83.19-.83.39-1.67.78-3.34.88-3.36c.29-1.12.57-2.24.91-3.37l.98-3.38.24-.85.27-.85.54-1.7.54-1.7c.18-.57.34-1.13.55-1.71l1.18-3.43c.2-.57.38-1.14.6-1.72l.64-1.73c.43-1.15.83-2.3,1.28-3.45.93-2.32,1.79-4.63,2.8-6.96l.73-1.75.36-.87.39-.88,1.56-3.52c.52-1.17,1.1-2.35,1.64-3.53l.83-1.77.88-1.78.87-1.78.43-.89.46-.89,1.83-3.57,1.93-3.58.48-.9.51-.9,1.01-1.8c5.33-9.62,11.49-19.36,18.69-29.05,3.52-4.87,7.28-9.73,11.29-14.54.48-.6,1.01-1.2,1.51-1.81.51-.6,1.01-1.2,1.52-1.8,1.04-1.2,2.05-2.4,3.13-3.59,2.09-2.39,4.28-4.76,6.5-7.11l1.68-1.76,1.71-1.75c.56-.58,1.16-1.16,1.73-1.74l.87-.87.88-.86c2.34-2.3,4.75-4.56,7.24-6.78,2.47-2.22,5.02-4.39,7.64-6.5,1.31-1.05,2.64-2.09,4-3.1,1.35-1.01,2.73-2,4.15-2.93-1.48.87-2.91,1.82-4.34,2.79-1.42.97-2.82,1.97-4.21,2.98-2.77,2.04-5.48,4.15-8.12,6.33-2.66,2.17-5.25,4.4-7.78,6.68l-.95.85-.94.86c-.62.57-1.27,1.14-1.88,1.73l-1.86,1.74-1.83,1.75c-2.43,2.34-4.84,4.72-7.14,7.12-1.19,1.2-2.31,2.41-3.46,3.62-.57.6-1.13,1.21-1.69,1.82-.56.61-1.14,1.21-1.68,1.83-4.48,4.87-8.74,9.81-12.76,14.79-8.24,9.9-15.51,19.93-21.99,29.88l-1.23,1.86-.62.93-.59.93-2.37,3.71-2.28,3.7-.57.93-.55.92-1.1,1.84-1.11,1.84-1.06,1.84c-.7,1.22-1.43,2.45-2.11,3.67l-2.03,3.66-.51.91-.48.91-.97,1.82c-1.33,2.43-2.51,4.83-3.76,7.25-.61,1.2-1.17,2.4-1.77,3.6l-.88,1.8c-.3.6-.56,1.19-.84,1.79l-1.67,3.58c-.29.6-.53,1.19-.8,1.78l-.79,1.78-.79,1.78-.39.89-.37.88-1.48,3.53c-.51,1.18-.96,2.35-1.42,3.52l-1.39,3.51-1.29,3.49-.65,1.74-.32.87-.3.87c-1.62,4.62-3.15,9.23-4.48,13.78-5.52,18.22-8.54,35.96-9.8,53.32l28.81-6.37Z" style="fill: #ffeb88; stroke: #ffeb88; stroke-miterlimit: 10; stroke-width: 1.87px;"/>
            <path d="M117.98,211.93c-4.83-15.79-7.77-31.95-8.11-48.59-.09-4.16.02-8.35.24-12.57l.04-.79.06-.8.13-1.59.26-3.19.36-3.21c.12-1.07.22-2.14.4-3.22l.46-3.23.12-.81.14-.81.29-1.63.28-1.63c.1-.54.18-1.08.3-1.63l.68-3.28c.12-.55.21-1.09.35-1.64l.39-1.65c.26-1.1.51-2.2.79-3.31.6-2.22,1.14-4.43,1.83-6.67l.49-1.68.24-.84.27-.84,1.08-3.37c.37-1.13.78-2.26,1.17-3.39l.59-1.7.64-1.71.64-1.71.32-.85.35-.86,1.38-3.44,1.47-3.45.37-.86.39-.87.78-1.74c4.16-9.28,9.18-18.73,15.32-28.22,2.99-4.76,6.25-9.54,9.78-14.29.43-.6.89-1.19,1.33-1.79.45-.59.89-1.19,1.34-1.79.93-1.19,1.82-2.38,2.78-3.56,1.86-2.38,3.83-4.74,5.85-7.09l1.52-1.76,1.55-1.75c.51-.59,1.05-1.16,1.58-1.75l.79-.87.81-.87c2.15-2.32,4.37-4.62,6.68-6.88,2.3-2.26,4.68-4.49,7.15-6.67,1.24-1.09,2.49-2.16,3.78-3.21,1.29-1.05,2.6-2.09,3.97-3.07-1.43.93-2.8,1.92-4.15,2.93-1.35,1.01-2.68,2.05-3.99,3.1-2.62,2.11-5.16,4.28-7.63,6.5-2.48,2.22-4.89,4.48-7.23,6.78l-.88.86-.87.87c-.57.58-1.17,1.15-1.73,1.74l-1.71,1.75-1.67,1.76c-2.22,2.35-4.41,4.71-6.49,7.11-1.07,1.19-2.08,2.39-3.12,3.59-.52.6-1.01,1.2-1.52,1.8-.5.6-1.02,1.2-1.51,1.81-4,4.81-7.76,9.67-11.26,14.54-7.18,9.69-13.33,19.42-18.63,29.04l-1,1.8-.5.9-.48.9-1.92,3.58-1.83,3.57-.46.89-.43.89-.87,1.78-.87,1.77-.82,1.77c-.54,1.18-1.11,2.36-1.63,3.53l-1.55,3.51-.39.88-.36.87-.73,1.75c-1.01,2.33-1.87,4.64-2.79,6.96-.44,1.15-.84,2.3-1.27,3.45l-.63,1.72c-.22.58-.39,1.14-.59,1.72l-1.17,3.43c-.2.57-.37,1.14-.55,1.71l-.53,1.7-.54,1.7-.27.85-.24.85-.97,3.38c-.34,1.13-.61,2.25-.9,3.37l-.87,3.36-.77,3.34-.38,1.67-.19.83-.17.83c-.91,4.42-1.72,8.82-2.33,13.18-2.55,17.43-2.54,34.38-.7,50.96l28.67-6.41Z" style="fill: #f7b14e; stroke: #f7b14e; stroke-miterlimit: 10; stroke-width: 1.87px;"/>
            <path d="M146.98,205.38c-7.81-14.97-13.67-30.3-16.91-46.14-.8-3.95-1.39-7.94-1.86-11.96l-.09-.75-.07-.76-.13-1.51-.26-3.03-.15-3.05c-.05-1.02-.12-2.04-.11-3.06l-.04-3.08v-.77s0-.77,0-.77l.03-1.55.03-1.55c.02-.52.01-1.03.05-1.56l.18-3.13c.03-.52.05-1.04.1-1.57l.14-1.58c.1-1.05.18-2.1.3-3.16.27-2.12.49-4.23.86-6.37l.25-1.6.12-.8.15-.81.6-3.23c.21-1.08.47-2.16.7-3.25l.36-1.63.41-1.64.41-1.64.2-.82.23-.82.92-3.3,1.02-3.32.26-.83.28-.84.56-1.67c2.98-8.95,6.86-18.1,11.92-27.38,2.47-4.66,5.21-9.35,8.25-14.05.36-.59.77-1.18,1.15-1.77.39-.59.77-1.18,1.17-1.77.81-1.18,1.59-2.36,2.43-3.54,1.63-2.37,3.38-4.72,5.18-7.08l1.36-1.77,1.4-1.76c.46-.59.95-1.17,1.43-1.76l.72-.88.74-.88c1.95-2.34,3.99-4.68,6.13-6.98,2.12-2.31,4.34-4.6,6.66-6.84,1.16-1.12,2.35-2.23,3.57-3.33,1.22-1.09,2.47-2.18,3.79-3.21-1.37.98-2.68,2.02-3.97,3.07-1.29,1.05-2.54,2.13-3.78,3.21-2.47,2.18-4.85,4.41-7.14,6.67-2.31,2.26-4.53,4.56-6.67,6.88l-.81.87-.79.87c-.52.58-1.07,1.16-1.58,1.75l-1.55,1.76-1.52,1.76c-2.01,2.35-3.98,4.71-5.83,7.09-.96,1.18-1.85,2.38-2.78,3.56-.46.59-.89,1.19-1.34,1.79-.44.6-.9,1.19-1.33,1.79-3.52,4.76-6.77,9.53-9.75,14.29-6.12,9.48-11.12,18.92-15.26,28.2l-.78,1.74-.39.87-.37.86-1.47,3.45-1.37,3.43-.34.86-.32.85-.64,1.71-.64,1.71-.59,1.7c-.38,1.13-.8,2.26-1.16,3.39l-1.07,3.37-.27.84-.24.84-.49,1.67c-.69,2.23-1.22,4.45-1.81,6.66-.28,1.1-.52,2.2-.78,3.3l-.39,1.65c-.13.55-.23,1.09-.34,1.64l-.67,3.28c-.12.55-.2,1.09-.3,1.63l-.28,1.63-.28,1.63-.14.81-.11.81-.46,3.23c-.17,1.08-.27,2.15-.39,3.21l-.35,3.2-.25,3.18-.12,1.59-.06.8-.04.79c-.21,4.22-.31,8.41-.2,12.56.39,16.63,3.37,32.77,8.25,48.55l28.53-6.45Z" style="fill: #ee7e69; stroke: #ee7e69; stroke-miterlimit: 10; stroke-width: 1.25px;"/>
            <path d="M175.84,198.78c-10.72-14.14-19.47-28.63-25.55-43.64-1.49-3.74-2.78-7.52-3.94-11.33l-.22-.71-.19-.72-.39-1.44-.77-2.88-.66-2.9c-.22-.97-.45-1.93-.62-2.91l-.55-2.93-.14-.73-.11-.74-.22-1.47-.22-1.48c-.07-.49-.16-.99-.2-1.48l-.32-2.98c-.05-.5-.12-.99-.15-1.49l-.1-1.5c-.06-1-.15-2-.19-3.01-.05-2.01-.16-4.04-.11-6.08v-1.53s.01-.77.01-.77l.03-.77.13-3.09c.05-1.03.15-2.07.22-3.11l.12-1.56.17-1.57.17-1.57.09-.79.11-.79.45-3.17.56-3.19.14-.8.17-.8.33-1.61c1.8-8.61,4.53-17.48,8.5-26.56,1.94-4.55,4.17-9.16,6.71-13.81.3-.58.64-1.16.97-1.75.33-.58.65-1.17.99-1.75.69-1.16,1.35-2.34,2.08-3.51,1.4-2.35,2.93-4.71,4.51-7.07l1.2-1.77,1.24-1.77c.41-.6.85-1.18,1.27-1.77l.64-.89.66-.89c1.76-2.37,3.61-4.73,5.57-7.09,1.94-2.36,4-4.7,6.17-7.02,1.09-1.16,2.2-2.31,3.35-3.45,1.15-1.14,2.33-2.27,3.6-3.36-1.32,1.04-2.56,2.12-3.78,3.22-1.22,1.1-2.4,2.21-3.56,3.33-2.32,2.25-4.54,4.53-6.65,6.85-2.13,2.31-4.17,4.64-6.12,6.98l-.73.88-.72.88c-.47.59-.97,1.17-1.42,1.76l-1.4,1.76-1.36,1.77c-1.8,2.36-3.54,4.71-5.17,7.08-.84,1.18-1.62,2.36-2.43,3.54-.4.59-.78,1.18-1.16,1.77-.38.59-.78,1.17-1.15,1.77-3.03,4.7-5.77,9.39-8.23,14.05-5.04,9.28-8.9,18.43-11.87,27.37l-.56,1.67-.28.83-.25.83-1.01,3.32-.91,3.3-.23.82-.2.82-.4,1.64-.4,1.64-.35,1.63c-.23,1.08-.48,2.17-.69,3.25l-.6,3.23-.15.8-.12.8-.25,1.6c-.36,2.14-.57,4.25-.84,6.37-.12,1.06-.19,2.11-.29,3.16l-.14,1.57c-.05.52-.06,1.05-.1,1.57l-.17,3.13c-.04.52-.03,1.04-.05,1.56l-.03,1.55-.03,1.55v.77s0,.77,0,.77l.05,3.08c0,1.03.07,2.04.12,3.06l.16,3.05.27,3.03.14,1.51.07.76.09.75c.49,4.01,1.09,8,1.9,11.94,3.28,15.82,9.19,31.14,17.05,46.1l28.39-6.49Z" style="fill: #f7c0b0; stroke: #f7c0b0; stroke-miterlimit: 10; stroke-width: 1.25px;"/>
            <path d="M203.82,191.95c-13.56-13.28-25.14-26.92-34.04-41.1-2.18-3.53-4.15-7.09-6-10.7l-.35-.68-.32-.68-.64-1.36-1.28-2.72-1.17-2.74c-.39-.92-.79-1.83-1.12-2.75l-1.05-2.77-.26-.69-.24-.7-.46-1.4-.46-1.4c-.15-.47-.32-.94-.45-1.4l-.81-2.82c-.13-.47-.28-.94-.39-1.42l-.35-1.42c-.23-.95-.47-1.9-.68-2.86-.38-1.91-.81-3.84-1.08-5.78l-.23-1.46-.12-.73-.09-.73-.35-2.94c-.07-.49-.09-.99-.13-1.48l-.12-1.49-.11-1.49-.06-1.5-.06-1.5-.03-.75v-.76s0-3.04,0-3.04l.1-3.06.03-.77.05-.77.11-1.55c.61-8.28,2.18-16.86,5.06-25.74,1.4-4.45,3.11-8.98,5.16-13.58.24-.58.52-1.15.79-1.73.27-.58.53-1.16.81-1.74.57-1.15,1.11-2.33,1.73-3.49,1.17-2.34,2.47-4.69,3.84-7.06l1.04-1.78,1.09-1.78c.36-.6.75-1.19,1.12-1.79l.57-.9.59-.89c1.56-2.39,3.22-4.79,5-7.19,1.77-2.4,3.65-4.8,5.67-7.19,1.01-1.19,2.05-2.38,3.14-3.56,1.09-1.18,2.2-2.36,3.42-3.5-1.27,1.09-2.45,2.22-3.6,3.36-1.15,1.14-2.26,2.29-3.35,3.45-2.17,2.32-4.22,4.66-6.16,7.02-1.96,2.35-3.8,4.72-5.56,7.09l-.66.89-.64.89c-.42.59-.86,1.18-1.27,1.77l-1.24,1.77-1.2,1.77c-1.58,2.36-3.1,4.71-4.5,7.07-.73,1.17-1.39,2.35-2.08,3.51-.34.58-.66,1.17-.98,1.75-.32.58-.66,1.16-.97,1.75-2.54,4.65-4.76,9.26-6.69,13.81-3.96,9.08-6.67,17.94-8.45,26.54l-.33,1.61-.17.8-.14.8-.55,3.19-.45,3.17-.11.79-.08.79-.17,1.57-.17,1.57-.12,1.56c-.07,1.04-.17,2.07-.22,3.11l-.12,3.09-.03.77v.77s0,1.53,0,1.53c-.04,2.04.07,4.06.13,6.07.05,1.01.14,2.01.2,3.01l.11,1.5c.03.5.1,1,.15,1.49l.33,2.97c.05.49.13.99.2,1.48l.22,1.48.22,1.47.11.73.14.73.55,2.92c.17.97.41,1.94.63,2.91l.67,2.89.78,2.88.39,1.43.2.72.22.71c1.18,3.81,2.47,7.58,3.98,11.32,6.13,15,14.93,29.48,25.69,43.6l28.24-6.53Z" style="fill: #9e94c7; stroke: #9e94c7; stroke-miterlimit: 10; stroke-width: 1.25px;"/>
          </g>
        </g>
      </g>
      <g>
        <g>
          <path d="M80.74,125.38c-3.16-1.41-7.46-1.9-9.18,1.08-1.16,2,.57,4.65,3.65,6.31.51.28,1.26.45.34,1.39s-.86,3.2,1.26,4.34,5.84,1.81,8.13,1.4c9.1-.71,5.32-3.51,4.79-7.18-.21-1.45-2.51-5.31-8.99-7.34Z" style="fill: #f9c264;"/>
          <path d="M74.74,139c-.72-.72-1.19-1.62-1.35-2.61-.14-.91,0-1.8.38-2.55-2.09-1.28-3.55-2.98-4.05-4.73-.35-1.23-.21-2.43.4-3.48,2.15-3.7,7.15-3.56,11.19-1.79,6.76,2.15,9.46,6.62,9.79,8.92.1.66.59,1.08.84,1.75.52,1.41,1.44,2.64.47,4.14-.94,1.46-4.66,2.38-7.06,2.75-2.55.42-6.18.45-8.9-1.17-.48-.28-1.35-.86-1.72-1.23Z" style="fill: #121f42;"/>
          <path d="M77.02,132c.26.26.58.61.57,1.09,0,.83-.19,1.13-.97,1.76-.05.04-.73.17-.53,1.2.13.66.73,1.14,1.41,1.6,4.55,3.12,11.99.15,12.01.12,1.8-.77,2-1.52,1.8-2.07-.29-.79-2.47-2.42-3.23-3.14-.45-.43-1.79-3.72-7.84-5.62-.06-.02-.12-.04-.18-.07-2.62-1.17-5.96-1.55-7.09.4-.1.17-.21.45-.08.94.23.82,1.16,2.06,3.09,3.1l.13.07c.21.1.58.29.9.61Z" style="fill: #f9c264;"/>
        </g>
        <g>
          <path d="M91.19,95.95s-7.17-9.43-12.41-8.93c-5.24.5-3.11,6.38-2.41,8.49,1.14,3.42,4.54,11.42,4.54,11.42" style="fill: #3882bc;"/>
          <path d="M80.4,108.42c-.41-.14-.75-.45-.93-.87-.14-.33-3.44-8.1-4.58-11.54l-.07-.2c-.61-1.82-1.88-5.61-.21-8.17.57-.88,1.73-1.97,4.03-2.18,5.94-.56,13.03,8.51,13.81,9.54.53.69.39,1.68-.3,2.21-.69.53-1.68.4-2.21-.3-2.57-3.37-7.83-8.61-11-8.31-1.26.12-1.58.6-1.68.76-.84,1.29.17,4.31.56,5.45l.07.2c1.1,3.32,4.46,11.22,4.49,11.3.34.8-.03,1.73-.84,2.07-.37.16-.78.16-1.13.04Z" style="fill: #151f3f;"/>
        </g>
        <path d="M140.8,72.82c-4.64-1.33-9.51,1.37-10.84,6.01-1.33,4.65,1.37,9.51,6.01,10.84,1.02.29,2.07.4,3.1.32,1.24-.1,2.45-.46,3.56-1.08,2.05-1.14,3.53-3,4.17-5.25,1.33-4.64-1.37-9.51-6.01-10.84Z" style="fill: #121f42;"/>
        <path d="M104.26,62.93c-4.64-1.33-9.51,1.37-10.84,6.01-1.33,4.65,1.37,9.51,6.01,10.84,1.03.3,2.08.39,3.09.31,3.54-.28,6.71-2.71,7.75-6.32,1.33-4.64-1.37-9.51-6.01-10.84Z" style="fill: #121f42;"/>
        <path d="M141.82,82.22c-.54,1.89-2.52,2.99-4.41,2.44-1.89-.54-2.99-2.52-2.44-4.41.54-1.89,2.52-2.99,4.41-2.44,1.89.54,2.99,2.52,2.44,4.41Z" style="fill: #121f42;"/>
        <path d="M107.11,72.86c-.83,2.9-3.86,4.58-6.77,3.75-2.9-.83-4.59-3.86-3.75-6.77.83-2.9,3.86-4.58,6.77-3.75,2.9.83,4.59,3.86,3.75,6.77Z" style="fill: #fff;"/>
        <path d="M105.27,72.33c-.54,1.89-2.52,2.99-4.41,2.44-1.89-.54-2.99-2.51-2.44-4.41.54-1.89,2.52-2.99,4.41-2.44,1.89.54,2.99,2.51,2.44,4.41Z" style="fill: #121f42;"/>
        <path d="M143.65,82.75c-.83,2.9-3.86,4.59-6.77,3.75-2.9-.83-4.58-3.86-3.75-6.77.83-2.9,3.86-4.58,6.77-3.75s4.59,3.86,3.75,6.77Z" style="fill: #fff;"/>
        <path d="M141.82,82.22c-.54,1.89-2.52,2.99-4.41,2.44-1.89-.54-2.99-2.52-2.44-4.41.54-1.89,2.52-2.99,4.41-2.44,1.89.54,2.99,2.52,2.44,4.41Z" style="fill: #121f42;"/>
        <path d="M99.91,143.77s-4.44-2.29-4.98-2.45-8.73-6.36-10.54-9.21-2.29-2.48-3.91-8.47c-1.62-5.99-1.11-12.09-1.11-12.09,0,0-.5-6.26,3.32-12.91,3.82-6.64,6.19-7.84,6.19-7.84,0,0,2.18-.53,7.16.89,4.98,1.43,12.94,4.14,12.94,4.14l12.67,3.05s11.67,2.47,13.15,2.89,4.51,6.13,4.73,12.46c.12,3.4-.53,8.12-1.34,11.41-1.05,4.21-4.25,9.89-4.61,9.55-.8-.74-4.06,3.15-4.06,3.15l-5.28,2.81-7.47,3.22h-13.69s-3.17-.61-3.17-.61Z" style="fill: #3882bc;"/>
        <path d="M139.52,109.8c1.43.02,2.52-1.58,3.19-2.58,3.19-4.79,1.52-9.2,1.26-10.53-.77-4.1-2.82-8.17-7.99-14.6-5.17-6.43-9.88-8.73-14.88-10.16-5-1.43-10.21-1.97-18,.75-7.79,2.72-11.69,5.08-14.51,8.15-2.82,3.07-2.65,8.21-2.73,9.1-.08.88-.16,2.44,1.02,3.78,1.37-.42,1.2-3.81,3.88-3.92,3.03-.12,4.3.56,5.46.82,8.69,1.95,11.71,5.11,19.57,6.84,9.08,2.01,17.96,2.29,21.19,5.94,2.03,2.3.52,6.38,2.54,6.41Z" style="fill: #35b597;"/>
        <path d="M139.48,111.48c-.78-.02-1.47-.58-1.61-1.38-.16-.91.44-1.78,1.35-1.94.49-.12,1.74-1.22,1.99-1.69.33-.76,1.56-5.9,1.1-9.57-.5-3.95-2.92-8.41-7.21-13.26-.2-.23-.35-.4-.43-.5-4.84-6.02-9.11-8.19-14.03-9.6-4.92-1.41-9.69-1.83-16.99.72-7.74,2.7-9.9,4.04-12.76,7.81-2.89,3.81-2.99,7.25-3.08,7.99-.03.51-.53,2.73-.17,3.1.63.65.67,1.71.04,2.37-.62.65-1.62.72-2.29.12-1.28-1.15-1.2-4.59-1.07-5.92.1-1.06,1.01-6.48,4.15-9.97,3.25-3.62,6.34-5.96,14.07-8.66,8.61-3,14.23-2.15,19.01-.78,4.79,1.37,10.01,3.62,15.72,10.72.06.08.18.2.33.38,4.74,5.37,7.44,10.43,8.02,15.06.56,4.45-.86,10.35-1.43,11.49-.6,1.2-2.71,3.19-4.4,3.49-.11.02-.22.03-.33.03Z" style="fill: #121f42;"/>
        <path d="M89.33,108.27s-.1-.04-.15-.05c3.31-.97,7.02-1.15,10.78-.46.77,1,6.58,1.15,8.88,3.38,3.71,2.73,5.91,8.31,5.73,8.22.96,3.38.81,7.01-.7,10.36-3.64,8.08-12.64,8.96-21.61,5.51-9.65-3.71-12.28-11.99-10.25-19.51.96-3.55,4.14-5.89,7.32-7.45Z" style="fill: #fff;"/>
        <polygon points="83.82 105.05 80.56 104.63 79.19 113.24 80.1 120.47 84.57 121.14 90.58 110.98 83.82 105.05" style="fill: #fff;"/>
        <path d="M126.12,112.41c1.55-4.88.52-9.48-2.54-12.1-.84-.2-1.8-.41-2.94-.66l-.35-.08c-1.39-.3-3.02-.67-4.9-1.11-3.67.73-7.47,3.05-9.06,6.72.09,2.11.69,3.6-.25,4.79-.78,1-2.16,1.23-5.2.56-3.56-.78-5.06-2.29-4.4-4.37.46-1.46,2.23-2.52,4.2-2.81.8-3.91-.96-7.98-3.53-10.68-1.79-.72-3.34-1.36-4.64-1.92l-.33-.14c-1.08-.46-1.82.56-2.61.23-2.36.22-2.9,2.24-4.61,4.17-.84.94-1.56,2.34-2.14,3.61-.25.55-.88,1.67-1.07,2.28-1.67,5.27.28,8.08,5.55,9.75.18.06,2.7.98,5.39,1.72,2.65.73,5.01,1.23,8.01,1.94,1.89.44-.13-.76,2.64-.02,5.94,1.58,7.41,2.85,10.76,4.01,5.27,1.67,10.35-.63,12.03-5.91Z" style="fill: #fff;"/>
        <path d="M102.87,102.99c-1.4-.4-2.95-.33-4.36.21-1.49.57-2.53,1.52-2.84,2.62-.17.59-.36,2.11,1.5,3.59.87.69,2.07,1.28,3.39,1.66.97.28,1.89.42,2.72.44,2.18.05,3.77-.76,4.21-2.3h0c.64-2.24-1.69-5.38-4.62-6.22Z" style="fill: #121f42;"/>
        <path d="M97.86,143.94c.98.46,2.9,1.13,3.37,1.25,3.15.82,6.28,1.19,9.3,1.14,2.26-.04,4.59-1.78,6.68-2.27s3.94.3,5.78-.6c4.8-2.04,8.91-4.59,12.09-8.73.37-.49.76-3.12,1.1-3.65.4-.61,1.18-.38,1.54-1.05,2.32-4.33,2.83-6.55,3.68-12.16.02-.11,0-.21.01-.32.36-2.66-.66-10.98-1.7-13.26-1.75-3.85-4.26-4.32-10.98-5.58l-.36-.07c-3.29-.62-7.87-1.52-14.14-3.06-6.13-2.02-10.5-3.67-13.62-4.89-.6-.23-1.16-.46-1.69-.67-5.21-2.06-8.08-3.2-11.11-.39-5.35,4.97-8.6,11.24-9.66,18.63-1.02,7.08-.2,10.94.45,14.38.95,4.34,1.93,6.77,4.41,10.1,1.25,1.68,2.92-1.3,1.85-2.85-1.9-2.76-2.46-4.46-3.26-8.1-.64-3.8-1.29-6.57-.35-13.09.96-6.67,3.88-12.32,8.69-16.79,1.48-1.37,2.45-1.13,7.83,1,.53.21,1.1.44,1.71.67,3.17,1.24,7.6,2.92,13.84,4.97.04.01.08.02.12.03,6.38,1.56,11.03,2.48,14.37,3.11l.36.07c6.55,1.23,7.66,1.5,8.71,3.8.58,1.26,1.77,8.69,1.41,11.98-1.86,12.92-6.39,18.7-16.48,22.99-5.86,2.29-11.98,3.23-18.7,1.83-1.16-.24-3.02-.76-4.12-1.17l-1.12,2.71Z" style="fill: #121f42;"/>
        <path d="M105.62,108.67c-.27.93-2.29,1.16-4.52.52s-3.82-1.91-3.56-2.84c.27-.93,2.57-2.13,4.8-1.49,2.23.64,3.54,2.88,3.28,3.81Z" style="fill: #f9c264;"/>
        <path d="M111.13,88.3c-.21.74-.99,1.17-1.73.96s-1.17-.99-.96-1.73c.21-.74.99-1.17,1.73-.96.74.21,1.17.99.96,1.73Z" style="fill: #121f42;"/>
        <path d="M118.61,90.39c-.21.74-.99,1.17-1.73.96s-1.17-.99-.96-1.73c.21-.74.99-1.17,1.73-.96.74.21,1.17.99.96,1.73Z" style="fill: #121f42;"/>
        <path d="M114.06,107.53c.23-.1-.36.12-.13.05.06-.02.12-.04.17-.05.12-.03.24-.04.36-.07-.5.11-.12.01.05.01.13,0,.25,0,.38.02s.35.08-.14-.03c.06.01.13.02.19.04.13.03.25.06.38.1s.25.09.37.14c.25.1-.36-.18-.12-.05.06.03.12.06.18.09.12.06.23.13.34.21.13.09.45.4.07.03.19.18.37.36.54.57.15.19-.2-.32-.07-.1.03.06.07.11.1.17.06.1.11.21.16.32.13.27-.08-.26-.04-.11.01.06.04.12.06.19.04.13.09.65.04.1.04.4.11.74.4,1.05.25.27.68.48,1.06.48.73-.01,1.61-.62,1.53-1.46-.09-.97-.39-1.78-.97-2.56-.42-.58-1.01-1.07-1.63-1.41-1.46-.81-3.14-1.02-4.7-.36-.72.31-1,1.37-.61,2.02.44.75,1.25.94,2.02.61h0Z" style="fill: #121f42;"/>
        <path d="M96.04,99.48c-1.69-2.7-6.18-3.08-8.24-.62-.5.6-.51,1.59.13,2.11.62.5,1.57.51,2.11-.13.04-.05.08-.1.13-.15s.27-.25.04-.05-.03.02.03-.01c.06-.04.12-.09.18-.13.14-.09.51-.22.04-.04.12-.04.23-.1.35-.14s.25-.07.37-.1c-.5.14-.06.02.1,0,.14-.01.28-.02.42-.02.03,0,.19,0,.19,0,0,0-.45-.04-.13,0,.26.03.51.08.76.15.33.1-.22-.09-.11-.04.06.02.12.04.18.07.13.05.25.11.37.18.05.03.11.06.16.09.21.12-.33-.24-.13-.09.1.07.19.15.28.23.04.04.09.08.13.12.19.19-.06-.05-.09-.12.05.11.18.23.24.33.42.66,1.43.89,2.07.42s.86-1.36.42-2.07h0Z" style="fill: #121f42;"/>
        <path d="M133.93,112.07s5.59-.26,7.2-1.52,4.86-3.63,6.63-1.78c1.77,1.85,3.79,1.9,2.78,4.22-1.01,2.32-3.26,6.96-5.22,9.04-1.97,2.08-8.47,6.73-9.02,7.25s-5.06,2.12-5.06,2.12l2.7-19.33Z" style="fill: #3882bc;"/>
        <path d="M135.45,131.65c-.43-.01-1.9-1.01-1.26-1.59.27-.24.63-1.14.89-1.38,7.89-7.3,14.42-15.25,13.7-17.32-.25-.72-.66-1.17-1.29-1.39-1.32-.48-3.22.1-4.15.66l-.28.17c-1.66,1.01-3.41,2.01-4.99,2.12-.85.07-1.62-.59-1.69-1.46-.06-.87.59-1.62,1.46-1.69.94-.07,2.72-1.15,3.57-1.67l.3-.18c1.7-1.02,4.57-1.75,6.85-.93,1.53.55,2.63,1.7,3.2,3.32.6,1.72.52,4.95-7.08,13.08-3.93,4.2-7.99,7.72-8.16,7.87-.31.27-.69.39-1.07.38Z" style="fill: #121f42;"/>
        <path d="M91.88,139.02c5.55,4.31,10.24,4.6,12.66,4.97" style="fill: none; stroke: #151f3f; stroke-linecap: round; stroke-linejoin: round; stroke-width: 2.87px;"/>
        <path d="M134.17,130.36s-.62,2.56.06,4.15c.6,1.39,1.73.08,2.31,1.1.8,1.42,1.86,3.12.9,4.33s-3.08,2.3-5.65,2.44-9.55.37-10.38.66-9.16-.32-9.16-.32l8.58-5.67,9.82-7.73,3.52,1.04Z" style="fill: #3882bc;"/>
        <path d="M112.28,146.17c-.58-.01,2.42-.93,2.22-1.52-.26-.75,1.06-1.87,1.81-2.13,4.75-1.65,8.99-1.56,12.4-1.5,3.1.06,5.59.16,7.11-1.13,1.14-.97.63-2.06.13-2.65-1.35-1.6-4.37-4.44-1.31-8.09.51-.61,1.83-1.19,2.44-.68.61.51,1.28.61.65,1.56-1.23,1.87-2.71,1.92,0,5.38.85,1.09,1.9,2.25,1.75,3.81-.1,1.05-.71,2-1.86,2.92-2.37,1.88-5.42,1.82-8.95,1.75-3.34-.07-7.13-.14-11.4,1.34-.17.06-4.8.93-4.96.93Z" style="fill: #151f3f;"/>
        <path d="M94.22,142.11c-.26,0-.52-.08-.75-.23-6.34-3.98-8.92-6.71-11.19-10.1-.3-.44-.39-.82-.7-1.3-.44-.69-.24-1.61.45-2.05.69-.44,1.58-.22,2.05.45,2.23,3.21,3.66,5.64,11.14,10.83.67.47.72,1,.28,1.69-.29.46-.79.71-1.29.7Z" style="fill: #151f3f;"/>
        <path d="M121.02,138.36s-1.95,4.26-3.72,5.56c-1.78,1.29-3.86,2.47-6.52,2.41-2.67-.06-6.33-1.59-7.32-2.95s-2.65-5.3-2.65-5.3l20.21.28Z" style="fill: #3882bc;"/>
        <g>
          <path d="M110.03,142.11c-.58-.05-1.17-.16-1.77-.36-5.15-1.69-6.85-4.8-5.87-10.73.01-.06.02-.12.04-.18,1.1-3.73,3.03-6.41,5.73-7.97,1.23-.71,2.65-.81,4-.28.88.34,1.65.92,2.15,1.6,2.95-2.12,6.11-2.3,8.19-.41,3.62,3.29.58,8.41-1.05,11.17-.15.26-1.25,1.74-1.29,1.79-1.32,1.68-4.95,5.79-10.12,5.37Z" style="fill: #121f42;"/>
          <path d="M105.41,131.63c-.78,4.83.55,6.13,3.81,7.2,1.01.33,4.65.96,9.18-4.77.12-.21.25-.43.39-.67,1.71-2.89,3.25-5.84,1.63-7.32-1.03-.93-2.89-.55-4.76.97l-.1.08c-.34.29-1.12.97-2.17.67-.71-.2-1.22-.77-1.51-1.69-.04-.1-.37-.49-.95-.68-.44-.15-.86-.11-1.24.11-1.97,1.14-3.42,3.19-4.29,6.09Z" style="fill: #121f42;"/>
          <path d="M105.41,131.63c-.78,4.83.55,6.13,3.81,7.2,1.01.33,4.45,1.47,8.98-4.27.12-.21.73-1.1.87-1.33,1.71-2.89,2.97-5.68,1.35-7.16-1.03-.93-2.89-.55-4.76.97l-.1.08c-.34.29-1.12.97-2.17.67-.71-.2-1.22-.77-1.51-1.69-.04-.1-.25-.74-.98-.81-.47-.05-.83.03-1.21.25-1.97,1.14-3.42,3.19-4.29,6.09Z" style="fill: #f9c264;"/>
        </g>
        <path d="M110.34,147.06c-.41,0-.82-.04-1.23-.09-3.93-.48-6.15-1.47-8.4-4.91-.36-.55-.99-2.67-.44-3.03.55-.36,1.31.51,1.68,1.06,1.87,2.86,4.23,4.12,7.45,4.51,3.68.45,7.48-1.3,10.73-4.88.44-.49.88-.67,1.37-.22.49.44-.43,2.34-.88,2.83-3.45,3.81-6.24,4.84-10.28,4.74Z" style="fill: #151f3f;"/>
      </g>
    </g>
  </g>
</svg>